<?xml version="1.0" standalone="no"?>
<!DOCTYPE svg PUBLIC "-//W3C//DTD SVG 20010904//EN"
 "http://www.w3.org/TR/2001/REC-SVG-20010904/DTD/svg10.dtd">
<svg version="1.0" xmlns="http://www.w3.org/2000/svg"
 width="512.000000pt" height="512.000000pt" viewBox="0 0 512.000000 512.000000"
 preserveAspectRatio="xMidYMid meet">

<g transform="translate(0.000000,512.000000) scale(0.100000,-0.100000)"
fill="#000000" stroke="none">
<path d="M2380 4794 c-539 -49 -1022 -274 -1401 -653 -346 -347 -555 -760
-636 -1256 -24 -153 -24 -497 0 -650 24 -148 70 -327 114 -444 257 -690 831
-1212 1533 -1395 221 -57 327 -70 570 -70 236 0 343 12 554 65 778 195 1407
820 1610 1599 57 221 70 327 70 570 0 243 -13 349 -70 570 -223 858 -945 1507
-1829 1645 -97 15 -425 27 -515 19z m371 -324 c575 -59 1085 -366 1405 -845
377 -568 428 -1284 133 -1895 -469 -972 -1630 -1366 -2595 -882 -556 279 -934
804 -1035 1437 -17 104 -17 446 0 550 52 328 176 624 369 885 72 96 275 299
372 371 399 294 872 427 1351 379z"/>
<path d="M2400 3200 l0 -480 -480 0 -480 0 0 -160 0 -160 480 0 480 0 0 -480
0 -480 160 0 160 0 0 480 0 480 480 0 480 0 0 160 0 160 -480 0 -480 0 0 480
0 480 -160 0 -160 0 0 -480z"/>
</g>
</svg>
