<svg width="40" height="41" viewBox="0 0 40 41" fill="none" xmlns="http://www.w3.org/2000/svg">
<path d="M27.5 0C24.95 0 22.75 1.75 21.4 4.4C23.65 7.1 25 10.8 25 15.05C25 16.5 24.85 17.8 24.55 19.1C25.5 19.65 26.45 20.05 27.5 20.05C31.65 20.05 35 15.55 35 10.05C35 4.55 31.65 0.05 27.5 0.05V0ZM12.5 5C8.35 5 5 9.5 5 15C5 20.5 8.35 25 12.5 25C16.65 25 20 20.5 20 15C20 9.5 16.65 5 12.5 5ZM36.25 20.8C34.1 23.35 31.15 24.9 27.8 25C29.15 26.9 30 29.2 30 31.7V35H40V26.7C40 24.1 38.45 21.85 36.25 20.75V20.8ZM3.75 25.8C1.55 26.9 0 29.15 0 31.75V40.05H25V31.75C25 29.15 23.45 26.9 21.25 25.8C19 28.45 15.95 30 12.5 30C9.05 30 6 28.4 3.75 25.8Z" fill="#F0EFE6"/>
</svg>
